<svg width="32" height="32" viewBox="0 0 32 32" fill="none" xmlns="http://www.w3.org/2000/svg">
  <style>
    .icon {
      fill: #19336B;
    }
    @media (prefers-color-scheme: dark) {
      .icon {
        fill: #A1B5DD;
      }
    }
  </style>
  <path class="icon" d="M26.5387 23.7424C27.327 24.6376 28.1003 25.5105 28.8699 26.3908C29.6069 27.2327 30.3421 28.0764 31.0754 28.922C31.3955 29.2943 31.6272 29.6954 31.3927 30.1895C31.148 30.706 30.7078 31.0271 30.1439 30.9982C29.4058 30.9673 28.6718 30.8739 27.9495 30.719C25.8836 30.2671 23.9671 29.296 22.3808 27.8975C22.3359 27.8588 22.289 27.8225 22.2403 27.7886C22.2205 27.778 22.1991 27.7705 22.177 27.7663C20.7655 28.6417 19.1929 29.2255 17.552 29.4832C16.2009 29.6967 14.8275 29.7304 13.4676 29.5837C11.8037 29.4078 10.2031 28.9937 8.71505 28.226C5.02525 26.3201 2.66619 23.3171 1.51318 19.3481C0.976457 17.4774 0.818271 15.5184 1.04789 13.5859C1.48806 9.72016 3.18825 6.51334 6.23223 4.05564C8.05992 2.57599 10.1407 1.6091 12.4505 1.23221C17.0039 0.487734 21.1115 1.51883 24.6561 4.53582C27.0999 6.61756 28.6316 9.26603 29.2533 12.3993C30.0601 16.4642 29.2282 20.1912 26.723 23.52C26.6718 23.5907 26.6104 23.6567 26.5387 23.7424ZM24.1657 15.2042C24.0727 14.5527 24.0252 13.8874 23.8819 13.2499C23.4333 11.2333 22.3864 9.5722 20.8156 8.23493C18.7078 6.44075 16.2836 5.8247 13.5728 6.30023C11.8698 6.59895 10.4041 7.38809 9.1515 8.55971C6.8976 10.6675 5.994 13.2871 6.34204 16.332C6.51606 17.8601 7.09861 19.2476 7.99198 20.502C10.2831 23.72 13.8771 25.007 17.5836 24.0011C21.3767 22.9653 24.1164 19.2513 24.1657 15.2042Z"/>
  <path class="icon" d="M11 16C12.1046 16 13 15.1046 13 14C13 12.8954 12.1046 12 11 12C9.89543 12 9 12.8954 9 14C9 15.1046 9.89543 16 11 16Z"/>
  <path class="icon" d="M18.9932 16C20.0978 16 20.9932 15.1046 20.9932 14C20.9932 12.8954 20.0978 12 18.9932 12C17.8887 12 16.9932 12.8954 16.9932 14C16.9932 15.1046 17.8887 16 18.9932 16Z"/>
</svg>